<svg width="36" height="22" viewBox="0 0 36 22" fill="none" xmlns="http://www.w3.org/2000/svg">
<path fill-rule="evenodd" clip-rule="evenodd" d="M24.8194 11.926C25.9444 11.926 26.9344 11.5763 27.4444 11.0475L32.8144 5.51266C33.3694 4.94979 32.6494 4.25047 31.5094 4.25047H9.30944L7.89945 2.5448H2.99445V4.25047H5.99445L11.3944 10.7235L9.36944 12.8044C8.27445 13.9472 9.71444 15.3373 11.9944 15.3373H29.9944V13.6316H11.9944L13.6444 11.926H24.8194ZM9.00945 17.8958C9.00945 16.9577 10.3445 16.1901 11.9945 16.1901C13.6445 16.1901 14.9945 16.9577 14.9945 17.8958C14.9945 18.8339 13.6445 19.6015 11.9945 19.6015C10.3445 19.6015 9.00945 18.8339 9.00945 17.8958ZM24.0095 17.8958C24.0095 16.9577 25.3444 16.1901 26.9944 16.1901C28.6444 16.1901 29.9944 16.9577 29.9944 17.8958C29.9944 18.8339 28.6444 19.6015 26.9944 19.6015C25.3444 19.6015 24.0095 18.8339 24.0095 17.8958ZM28.9594 5.95614H10.7344L14.2894 10.2203H24.8194L28.9594 5.95614Z" fill="#030303"/>
</svg>
