<svg width="28" height="28" viewBox="0 0 28 28" fill="none" xmlns="http://www.w3.org/2000/svg">
<path fill-rule="evenodd" clip-rule="evenodd" d="M14 27.3333C21.36 27.3333 27.3333 21.36 27.3333 14C27.3333 6.63998 21.36 0.666648 14 0.666648C6.63999 0.666647 0.666658 6.63998 0.666658 14C0.666657 21.36 6.63999 27.3333 14 27.3333ZM15.3333 20.6666L15.3333 18L12.6667 18L12.6667 20.6666L15.3333 20.6666ZM15.3333 15.3333L15.3333 7.33332L12.6667 7.33332L12.6667 15.3333L15.3333 15.3333ZM24.6667 14C24.6667 8.11998 19.88 3.33331 14 3.33331C8.11999 3.33331 3.33333 8.11998 3.33333 14C3.33333 19.88 8.11999 24.6666 14 24.6666C19.88 24.6666 24.6667 19.88 24.6667 14Z" fill="black" fill-opacity="0.54"/>
</svg>
