<svg width="22" height="22" viewBox="0 0 22 22" fill="none" xmlns="http://www.w3.org/2000/svg">
<path d="M11.2211 1.88334L11 1.46426L10.7789 1.88334L7.77977 7.56773L1.44681 8.66349L0.979912 8.74428L1.31016 9.08407L5.78955 13.693L4.87469 20.0546L4.80724 20.5236L5.23246 20.3145L11 17.4786L16.7675 20.3145L17.1928 20.5236L17.1253 20.0546L16.2104 13.693L20.6898 9.08407L21.0201 8.74428L20.5532 8.66349L14.2202 7.56773L11.2211 1.88334Z" fill="white" stroke="#9C7E37" stroke-width="0.5"/>
<path fill-rule="evenodd" clip-rule="evenodd" d="M10.9999 2.00023V17.2001L10.9998 17.2L5.12197 20.0902L6.05433 13.6069L1.48926 8.90983L7.94334 7.79311L10.9998 2L10.9999 2.00023Z" fill="url(#paint0_linear)"/>
<defs>
<linearGradient id="paint0_linear" x1="5.49988" y1="-2.00001" x2="5.49988" y2="25" gradientUnits="userSpaceOnUse">
<stop stop-color="#FFC600"/>
<stop offset="1" stop-color="#E0A100"/>
</linearGradient>
</defs>
</svg>
